

Release info:

General
Format                                   : Matroska
Format version                           : Version 2
File size                                : 692 MiB
Duration                                 : 1h 41mn
Overall bit rate mode                    : Variable
Overall bit rate                         : 957 Kbps

Video
ID                                       : 1
Format                                   : MPEG-4 Visual
Format profile                           : Advanced Simple@L5
Format settings, BVOP                    : Yes
Format settings, QPel                    : No
Format settings, GMC                     : No warppoints
Format settings, Matrix                  : Custom
Codec ID                                 : V_MS/VFW/FOURCC / XVID
Codec ID/Hint                            : XviD
Duration                                 : 1h 41mn
Bit rate                                 : 826 Kbps
Width                                    : 624 pixels
Height                                   : 352 pixels
Display aspect ratio                     : 16:9
Frame rate mode                          : Constant
Frame rate                               : 23.976 fps
Color space                              : YUV
Chroma subsampling                       : 4:2:0
Bit depth                                : 8 bits
Scan type                                : Progressive
Compression mode                         : Lossy
Bits/(Pixel*Frame)                       : 0.157
Stream size                              : 597 MiB (86%)
Language                                 : English
Default                                  : Yes
Forced                                   : No

Audio
ID                                       : 2
Format                                   : MPEG Audio
Format version                           : Version 1
Format profile                           : Layer 3
Mode                                     : Joint stereo
Mode extension                           : MS Stereo
Muxing mode                              : Header stripping
Codec ID                                 : A_MPEG/L3
Codec ID/Hint                            : MP3
Duration                                 : 1h 41mn
Bit rate mode                            : Variable
Bit rate                                 : 113 Kbps
Nominal bit rate                         : 128 Kbps
Channel(s)                               : 2 channels
Sampling rate                            : 48.0 KHz
Compression mode                         : Lossy
Stream size                              : 81.6 MiB (12%)
Language                                 : English
Default                                  : Yes
Forced                                   : No


Source:
credit to original movie ripper ViP3R (Thanks)

IMDB Info:

Friends get together for a night out in a bar. Life is wonderful as a couple share their proposal moment... 

Director: Dominic Burns
Writer: Dominic Burns
Stars: Bianca Bree, Sean Brosnan and Simon Phillips 

Genres: Sci-Fi
 
http://www.imdb.com/title/tt2040578/

Screen Shot:
 
http://www.shotpix.com/images/64006115147431879683.png 
http://www.shotpix.com/images/71340169904257463993.png 
http://www.shotpix.com/images/47200448334186322271.png 
http://www.shotpix.com/images/55780558438867588680.png